# Blender v2.81 (sub 16) OBJ File: 'astroids.blend'
# www.blender.org
mtllib pyramid.mtl
o Cube
v 0.000000 1.000000 0.000000
v -1.000000 0.000976 1.000000
v -1.000000 0.000976 -1.000000
v 1.000000 0.000976 1.000000
v 1.000000 0.000976 -1.000000
vt 0.498700 0.998700
vt 0.002601 0.998700
vt 0.498700 0.502601
vt 0.998700 0.498700
vt 0.502601 0.498700
vt 0.998700 0.002601
vt 0.501300 0.001300
vt 0.997399 0.001300
vt 0.501300 0.497399
vt 0.001300 0.501300
vt 0.497399 0.501300
vt 0.001300 0.997399
vt 0.498700 0.001300
vt 0.001300 0.001300
vt 0.001300 0.498700
vt 0.498700 0.498700
vn 0.0000 0.7075 -0.7068
vn -0.7068 0.7075 0.0000
vn 0.0000 0.7075 0.7068
vn 0.7068 0.7075 0.0000
vn 0.0000 -1.0000 0.0000
usemtl None
s off
f 1/1/1 5/2/1 3/3/1
f 1/4/2 3/5/2 2/6/2
f 1/7/3 2/8/3 4/9/3
f 1/10/4 4/11/4 5/12/4
f 5/13/5 4/14/5 2/15/5 3/16/5
